<mxfile host="drawio-plugin" modified="2022-02-22T19:42:08.707Z" agent="5.0 (Windows NT 6.2; Win64; x64) AppleWebKit/537.36 (KHTML, like Gecko) Chrome/89.0.4389.114 Safari/537.36" etag="wZ1TI1uwryuAU-5dp4aH" version="15.5.4" type="embed"><diagram id="euDFDf5v3u_W_AGFaJGX" name="Page-1"><mxGraphModel dx="2264" dy="1951" grid="1" gridSize="10" guides="1" tooltips="1" connect="1" arrows="1" fold="1" page="1" pageScale="1" pageWidth="827" pageHeight="1169" background="none" math="0" shadow="0"><root><mxCell id="0"/><mxCell id="1" parent="0"/><mxCell id="rPETEuu0OWyHx-MV_tZJ-2" value="Segway" style="whiteSpace=wrap;html=1;align=center;fillColor=#FFFFFF;gradientColor=none;gradientDirection=east;fontColor=#000000;" parent="1" vertex="1"><mxGeometry x="600" y="300" width="135" height="40" as="geometry"/></mxCell><mxCell id="rPETEuu0OWyHx-MV_tZJ-3" value="Kurs" style="whiteSpace=wrap;html=1;align=center;fillColor=#FFFFFF;gradientColor=none;gradientDirection=east;fontColor=#000000;" parent="1" vertex="1"><mxGeometry y="-200" width="135" height="40" as="geometry"/></mxCell><mxCell id="rPETEuu0OWyHx-MV_tZJ-4" value="Trainer" style="whiteSpace=wrap;html=1;align=center;fillColor=#FFFFFF;gradientColor=none;gradientDirection=east;fontColor=#000000;" parent="1" vertex="1"><mxGeometry x="600" y="-200" width="135" height="40" as="geometry"/></mxCell><mxCell id="rPETEuu0OWyHx-MV_tZJ-5" value="Kunde" style="whiteSpace=wrap;html=1;align=center;fillColor=#FFFFFF;gradientColor=none;gradientDirection=east;fontColor=#000000;" parent="1" vertex="1"><mxGeometry y="300" width="135" height="40" as="geometry"/></mxCell><mxCell id="rPETEuu0OWyHx-MV_tZJ-6" value="trainerstundenBuchen" style="shape=rhombus;perimeter=rhombusPerimeter;whiteSpace=wrap;html=1;align=center;fillColor=#FFFFFF;gradientColor=none;gradientDirection=east;fontColor=#000000;" parent="1" vertex="1"><mxGeometry x="290" y="45" width="160" height="70" as="geometry"/></mxCell><mxCell id="rPETEuu0OWyHx-MV_tZJ-7" value="" style="endArrow=none;html=1;rounded=0;exitX=0.75;exitY=0;exitDx=0;exitDy=0;entryX=0;entryY=1;entryDx=0;entryDy=0;" parent="1" source="rPETEuu0OWyHx-MV_tZJ-5" target="rPETEuu0OWyHx-MV_tZJ-6" edge="1"><mxGeometry relative="1" as="geometry"><mxPoint x="340" y="160" as="sourcePoint"/><mxPoint x="500" y="160" as="targetPoint"/></mxGeometry></mxCell><mxCell id="rPETEuu0OWyHx-MV_tZJ-8" value="" style="endArrow=none;html=1;rounded=0;exitX=1;exitY=0;exitDx=0;exitDy=0;entryX=0.25;entryY=1;entryDx=0;entryDy=0;" parent="1" source="rPETEuu0OWyHx-MV_tZJ-6" target="rPETEuu0OWyHx-MV_tZJ-4" edge="1"><mxGeometry relative="1" as="geometry"><mxPoint x="111.25" y="310" as="sourcePoint"/><mxPoint x="190" y="192.5" as="targetPoint"/></mxGeometry></mxCell><mxCell id="rPETEuu0OWyHx-MV_tZJ-9" value="muss" style="text;strokeColor=none;fillColor=none;spacingLeft=4;spacingRight=4;overflow=hidden;rotatable=0;points=[[0,0.5],[1,0.5]];portConstraint=eastwest;fontSize=12;" parent="1" vertex="1"><mxGeometry x="620" y="-150" width="40" height="30" as="geometry"/></mxCell><mxCell id="rPETEuu0OWyHx-MV_tZJ-10" value="kann" style="text;strokeColor=none;fillColor=none;spacingLeft=4;spacingRight=4;overflow=hidden;rotatable=0;points=[[0,0.5],[1,0.5]];portConstraint=eastwest;fontSize=12;" parent="1" vertex="1"><mxGeometry x="130" y="270" width="40" height="30" as="geometry"/></mxCell><mxCell id="rPETEuu0OWyHx-MV_tZJ-12" value="n" style="text;strokeColor=none;fillColor=none;spacingLeft=4;spacingRight=4;overflow=hidden;rotatable=0;points=[[0,0.5],[1,0.5]];portConstraint=eastwest;fontSize=12;" parent="1" vertex="1"><mxGeometry x="580" y="-150" width="40" height="30" as="geometry"/></mxCell><mxCell id="rPETEuu0OWyHx-MV_tZJ-13" value="m" style="text;strokeColor=none;fillColor=none;spacingLeft=4;spacingRight=4;overflow=hidden;rotatable=0;points=[[0,0.5],[1,0.5]];portConstraint=eastwest;fontSize=12;" parent="1" vertex="1"><mxGeometry x="90" y="270" width="40" height="30" as="geometry"/></mxCell><mxCell id="rPETEuu0OWyHx-MV_tZJ-14" value="mietet" style="shape=rhombus;perimeter=rhombusPerimeter;whiteSpace=wrap;html=1;align=center;fillColor=#FFFFFF;gradientColor=none;gradientDirection=east;fontColor=#000000;" parent="1" vertex="1"><mxGeometry x="310" y="290" width="120" height="60" as="geometry"/></mxCell><mxCell id="rPETEuu0OWyHx-MV_tZJ-15" value="" style="endArrow=none;html=1;rounded=0;exitX=1;exitY=0.5;exitDx=0;exitDy=0;entryX=0;entryY=0.5;entryDx=0;entryDy=0;" parent="1" source="rPETEuu0OWyHx-MV_tZJ-14" target="rPETEuu0OWyHx-MV_tZJ-2" edge="1"><mxGeometry relative="1" as="geometry"><mxPoint x="111.25" y="310" as="sourcePoint"/><mxPoint x="350" y="112.5" as="targetPoint"/></mxGeometry></mxCell><mxCell id="rPETEuu0OWyHx-MV_tZJ-16" value="" style="endArrow=none;html=1;rounded=0;exitX=1;exitY=0.5;exitDx=0;exitDy=0;entryX=0;entryY=0.5;entryDx=0;entryDy=0;" parent="1" source="rPETEuu0OWyHx-MV_tZJ-5" target="rPETEuu0OWyHx-MV_tZJ-14" edge="1"><mxGeometry relative="1" as="geometry"><mxPoint x="121.25" y="320" as="sourcePoint"/><mxPoint x="360" y="122.5" as="targetPoint"/></mxGeometry></mxCell><mxCell id="rPETEuu0OWyHx-MV_tZJ-17" value="faehrt" style="shape=rhombus;perimeter=rhombusPerimeter;whiteSpace=wrap;html=1;align=center;fillColor=#FFFFFF;gradientColor=none;gradientDirection=east;fontColor=#000000;" parent="1" vertex="1"><mxGeometry x="607.5" y="50" width="120" height="60" as="geometry"/></mxCell><mxCell id="rPETEuu0OWyHx-MV_tZJ-18" value="" style="endArrow=none;html=1;rounded=0;exitX=0.5;exitY=1;exitDx=0;exitDy=0;entryX=0.5;entryY=0;entryDx=0;entryDy=0;" parent="1" source="rPETEuu0OWyHx-MV_tZJ-17" target="rPETEuu0OWyHx-MV_tZJ-2" edge="1"><mxGeometry relative="1" as="geometry"><mxPoint x="406.25" y="70" as="sourcePoint"/><mxPoint x="895" y="80" as="targetPoint"/></mxGeometry></mxCell><mxCell id="rPETEuu0OWyHx-MV_tZJ-19" value="" style="endArrow=none;html=1;rounded=0;exitX=0.5;exitY=1;exitDx=0;exitDy=0;entryX=0.5;entryY=0;entryDx=0;entryDy=0;" parent="1" source="rPETEuu0OWyHx-MV_tZJ-4" target="rPETEuu0OWyHx-MV_tZJ-17" edge="1"><mxGeometry relative="1" as="geometry"><mxPoint x="430" y="80" as="sourcePoint"/><mxPoint x="655" y="-117.5" as="targetPoint"/></mxGeometry></mxCell><mxCell id="rPETEuu0OWyHx-MV_tZJ-22" value="leitet" style="shape=rhombus;perimeter=rhombusPerimeter;whiteSpace=wrap;html=1;align=center;fillColor=#FFFFFF;gradientColor=none;gradientDirection=east;fontColor=#000000;" parent="1" vertex="1"><mxGeometry x="310" y="-210" width="120" height="60" as="geometry"/></mxCell><mxCell id="rPETEuu0OWyHx-MV_tZJ-23" value="" style="endArrow=none;html=1;rounded=0;exitX=1;exitY=0.5;exitDx=0;exitDy=0;entryX=0;entryY=0.5;entryDx=0;entryDy=0;" parent="1" source="rPETEuu0OWyHx-MV_tZJ-22" target="rPETEuu0OWyHx-MV_tZJ-4" edge="1"><mxGeometry relative="1" as="geometry"><mxPoint x="81.25" y="-90" as="sourcePoint"/><mxPoint x="570" y="-80" as="targetPoint"/></mxGeometry></mxCell><mxCell id="rPETEuu0OWyHx-MV_tZJ-24" value="" style="endArrow=none;html=1;rounded=0;exitX=1;exitY=0.5;exitDx=0;exitDy=0;entryX=0;entryY=0.5;entryDx=0;entryDy=0;" parent="1" source="rPETEuu0OWyHx-MV_tZJ-3" target="rPETEuu0OWyHx-MV_tZJ-22" edge="1"><mxGeometry relative="1" as="geometry"><mxPoint x="105" y="-80" as="sourcePoint"/><mxPoint x="330" y="-277.5" as="targetPoint"/></mxGeometry></mxCell><mxCell id="rPETEuu0OWyHx-MV_tZJ-26" value="nimmtTeilAn" style="shape=rhombus;perimeter=rhombusPerimeter;whiteSpace=wrap;html=1;align=center;fillColor=#FFFFFF;gradientColor=none;gradientDirection=east;fontColor=#000000;" parent="1" vertex="1"><mxGeometry x="7.5" y="50" width="120" height="60" as="geometry"/></mxCell><mxCell id="rPETEuu0OWyHx-MV_tZJ-27" value="" style="endArrow=none;html=1;rounded=0;exitX=0.5;exitY=1;exitDx=0;exitDy=0;entryX=0.5;entryY=0;entryDx=0;entryDy=0;" parent="1" source="rPETEuu0OWyHx-MV_tZJ-26" target="rPETEuu0OWyHx-MV_tZJ-5" edge="1"><mxGeometry relative="1" as="geometry"><mxPoint x="-101.25" y="40" as="sourcePoint"/><mxPoint x="160" y="270" as="targetPoint"/></mxGeometry></mxCell><mxCell id="rPETEuu0OWyHx-MV_tZJ-28" value="" style="endArrow=none;html=1;rounded=0;exitX=0.5;exitY=1;exitDx=0;exitDy=0;entryX=0.5;entryY=0;entryDx=0;entryDy=0;" parent="1" source="rPETEuu0OWyHx-MV_tZJ-3" target="rPETEuu0OWyHx-MV_tZJ-26" edge="1"><mxGeometry relative="1" as="geometry"><mxPoint x="160" y="-190" as="sourcePoint"/><mxPoint x="147.5" y="-147.5" as="targetPoint"/></mxGeometry></mxCell><mxCell id="rPETEuu0OWyHx-MV_tZJ-29" value="n" style="text;strokeColor=none;fillColor=none;spacingLeft=4;spacingRight=4;overflow=hidden;rotatable=0;points=[[0,0.5],[1,0.5]];portConstraint=eastwest;fontSize=12;" parent="1" vertex="1"><mxGeometry x="135" y="-210" width="40" height="30" as="geometry"/></mxCell><mxCell id="rPETEuu0OWyHx-MV_tZJ-30" value="1" style="text;strokeColor=none;fillColor=none;spacingLeft=4;spacingRight=4;overflow=hidden;rotatable=0;points=[[0,0.5],[1,0.5]];portConstraint=eastwest;fontSize=12;" parent="1" vertex="1"><mxGeometry x="560" y="-210" width="40" height="30" as="geometry"/></mxCell><mxCell id="rPETEuu0OWyHx-MV_tZJ-32" value="kann" style="text;strokeColor=none;fillColor=none;spacingLeft=4;spacingRight=4;overflow=hidden;rotatable=0;points=[[0,0.5],[1,0.5]];portConstraint=eastwest;fontSize=12;" parent="1" vertex="1"><mxGeometry x="560" y="-180" width="40" height="30" as="geometry"/></mxCell><mxCell id="rPETEuu0OWyHx-MV_tZJ-33" value="muss" style="text;strokeColor=none;fillColor=none;spacingLeft=4;spacingRight=4;overflow=hidden;rotatable=0;points=[[0,0.5],[1,0.5]];portConstraint=eastwest;fontSize=12;" parent="1" vertex="1"><mxGeometry x="135" y="-180" width="40" height="30" as="geometry"/></mxCell><mxCell id="rPETEuu0OWyHx-MV_tZJ-34" value="m" style="text;strokeColor=none;fillColor=none;spacingLeft=4;spacingRight=4;overflow=hidden;rotatable=0;points=[[0,0.5],[1,0.5]];portConstraint=eastwest;fontSize=12;" parent="1" vertex="1"><mxGeometry x="30" y="240" width="40" height="30" as="geometry"/></mxCell><mxCell id="rPETEuu0OWyHx-MV_tZJ-35" value="n" style="text;strokeColor=none;fillColor=none;spacingLeft=4;spacingRight=4;overflow=hidden;rotatable=0;points=[[0,0.5],[1,0.5]];portConstraint=eastwest;fontSize=12;" parent="1" vertex="1"><mxGeometry x="30" y="-160" width="40" height="30" as="geometry"/></mxCell><mxCell id="rPETEuu0OWyHx-MV_tZJ-36" value="muss" style="text;strokeColor=none;fillColor=none;spacingLeft=4;spacingRight=4;overflow=hidden;rotatable=0;points=[[0,0.5],[1,0.5]];portConstraint=eastwest;fontSize=12;" parent="1" vertex="1"><mxGeometry x="70" y="-160" width="40" height="30" as="geometry"/></mxCell><mxCell id="rPETEuu0OWyHx-MV_tZJ-37" value="kann" style="text;strokeColor=none;fillColor=none;spacingLeft=4;spacingRight=4;overflow=hidden;rotatable=0;points=[[0,0.5],[1,0.5]];portConstraint=eastwest;fontSize=12;" parent="1" vertex="1"><mxGeometry x="70" y="240" width="40" height="30" as="geometry"/></mxCell><mxCell id="rPETEuu0OWyHx-MV_tZJ-38" value="1" style="text;strokeColor=none;fillColor=none;spacingLeft=4;spacingRight=4;overflow=hidden;rotatable=0;points=[[0,0.5],[1,0.5]];portConstraint=eastwest;fontSize=12;" parent="1" vertex="1"><mxGeometry x="135" y="290" width="40" height="30" as="geometry"/></mxCell><mxCell id="rPETEuu0OWyHx-MV_tZJ-39" value="1" style="text;strokeColor=none;fillColor=none;spacingLeft=4;spacingRight=4;overflow=hidden;rotatable=0;points=[[0,0.5],[1,0.5]];portConstraint=eastwest;fontSize=12;" parent="1" vertex="1"><mxGeometry x="560" y="290" width="40" height="30" as="geometry"/></mxCell><mxCell id="rPETEuu0OWyHx-MV_tZJ-40" value="kann" style="text;strokeColor=none;fillColor=none;spacingLeft=4;spacingRight=4;overflow=hidden;rotatable=0;points=[[0,0.5],[1,0.5]];portConstraint=eastwest;fontSize=12;" parent="1" vertex="1"><mxGeometry x="135" y="320" width="40" height="30" as="geometry"/></mxCell><mxCell id="rPETEuu0OWyHx-MV_tZJ-41" value="kann" style="text;strokeColor=none;fillColor=none;spacingLeft=4;spacingRight=4;overflow=hidden;rotatable=0;points=[[0,0.5],[1,0.5]];portConstraint=eastwest;fontSize=12;" parent="1" vertex="1"><mxGeometry x="560" y="320" width="40" height="30" as="geometry"/></mxCell><mxCell id="rPETEuu0OWyHx-MV_tZJ-42" value="1" style="text;strokeColor=none;fillColor=none;spacingLeft=4;spacingRight=4;overflow=hidden;rotatable=0;points=[[0,0.5],[1,0.5]];portConstraint=eastwest;fontSize=12;" parent="1" vertex="1"><mxGeometry x="630" y="-90" width="40" height="30" as="geometry"/></mxCell><mxCell id="rPETEuu0OWyHx-MV_tZJ-43" value="kann" style="text;strokeColor=none;fillColor=none;spacingLeft=4;spacingRight=4;overflow=hidden;rotatable=0;points=[[0,0.5],[1,0.5]];portConstraint=eastwest;fontSize=12;" parent="1" vertex="1"><mxGeometry x="670" y="-90" width="40" height="30" as="geometry"/></mxCell><mxCell id="rPETEuu0OWyHx-MV_tZJ-44" value="kann" style="text;strokeColor=none;fillColor=none;spacingLeft=4;spacingRight=4;overflow=hidden;rotatable=0;points=[[0,0.5],[1,0.5]];portConstraint=eastwest;fontSize=12;" parent="1" vertex="1"><mxGeometry x="670" y="270" width="40" height="30" as="geometry"/></mxCell><mxCell id="rPETEuu0OWyHx-MV_tZJ-45" value="1" style="text;strokeColor=none;fillColor=none;spacingLeft=4;spacingRight=4;overflow=hidden;rotatable=0;points=[[0,0.5],[1,0.5]];portConstraint=eastwest;fontSize=12;" parent="1" vertex="1"><mxGeometry x="630" y="270" width="40" height="30" as="geometry"/></mxCell><mxCell id="rPETEuu0OWyHx-MV_tZJ-46" value="&lt;div&gt;&lt;u&gt;SegwayID&lt;/u&gt;&lt;/div&gt;" style="ellipse;whiteSpace=wrap;html=1;align=center;fillColor=#FFFFFF;gradientColor=none;gradientDirection=east;fontColor=#000000;" parent="1" vertex="1"><mxGeometry x="880" y="300" width="140" height="40" as="geometry"/></mxCell><mxCell id="rPETEuu0OWyHx-MV_tZJ-48" value="Ausstattungsart" style="ellipse;whiteSpace=wrap;html=1;align=center;fillColor=#FFFFFF;gradientColor=none;gradientDirection=east;fontColor=#000000;" parent="1" vertex="1"><mxGeometry x="880" y="360" width="140" height="40" as="geometry"/></mxCell><mxCell id="rPETEuu0OWyHx-MV_tZJ-49" value="&lt;div&gt;MaxSpeed&lt;/div&gt;" style="ellipse;whiteSpace=wrap;html=1;align=center;fillColor=#FFFFFF;gradientColor=none;gradientDirection=east;fontColor=#000000;" parent="1" vertex="1"><mxGeometry x="880" y="420" width="140" height="40" as="geometry"/></mxCell><mxCell id="rPETEuu0OWyHx-MV_tZJ-50" value="" style="endArrow=none;html=1;rounded=0;entryX=1;entryY=0.5;entryDx=0;entryDy=0;" parent="1" target="rPETEuu0OWyHx-MV_tZJ-2" edge="1"><mxGeometry relative="1" as="geometry"><mxPoint x="800" y="320" as="sourcePoint"/><mxPoint x="820" y="350" as="targetPoint"/></mxGeometry></mxCell><mxCell id="rPETEuu0OWyHx-MV_tZJ-51" value="" style="endArrow=none;html=1;rounded=0;" parent="1" edge="1"><mxGeometry relative="1" as="geometry"><mxPoint x="800" y="440" as="sourcePoint"/><mxPoint x="800" y="320" as="targetPoint"/></mxGeometry></mxCell><mxCell id="rPETEuu0OWyHx-MV_tZJ-52" value="" style="endArrow=none;html=1;rounded=0;entryX=0;entryY=0.5;entryDx=0;entryDy=0;" parent="1" target="rPETEuu0OWyHx-MV_tZJ-46" edge="1"><mxGeometry relative="1" as="geometry"><mxPoint x="800" y="320" as="sourcePoint"/><mxPoint x="630" y="350" as="targetPoint"/></mxGeometry></mxCell><mxCell id="rPETEuu0OWyHx-MV_tZJ-53" value="" style="endArrow=none;html=1;rounded=0;entryX=0;entryY=0.5;entryDx=0;entryDy=0;" parent="1" target="rPETEuu0OWyHx-MV_tZJ-48" edge="1"><mxGeometry relative="1" as="geometry"><mxPoint x="800" y="380" as="sourcePoint"/><mxPoint x="890" y="330" as="targetPoint"/></mxGeometry></mxCell><mxCell id="rPETEuu0OWyHx-MV_tZJ-54" value="" style="endArrow=none;html=1;rounded=0;entryX=0;entryY=0.5;entryDx=0;entryDy=0;" parent="1" target="rPETEuu0OWyHx-MV_tZJ-49" edge="1"><mxGeometry relative="1" as="geometry"><mxPoint x="800" y="440" as="sourcePoint"/><mxPoint x="900" y="340" as="targetPoint"/></mxGeometry></mxCell><mxCell id="rPETEuu0OWyHx-MV_tZJ-55" value="" style="endArrow=none;html=1;rounded=0;exitX=1;exitY=0.5;exitDx=0;exitDy=0;" parent="1" source="rPETEuu0OWyHx-MV_tZJ-17" edge="1"><mxGeometry relative="1" as="geometry"><mxPoint x="830" y="350" as="sourcePoint"/><mxPoint x="800" y="80" as="targetPoint"/></mxGeometry></mxCell><mxCell id="rPETEuu0OWyHx-MV_tZJ-57" value="Zeitraum" style="ellipse;whiteSpace=wrap;html=1;align=center;fillColor=#FFFFFF;gradientColor=none;gradientDirection=east;fontColor=#000000;" parent="1" vertex="1"><mxGeometry x="800" y="60" width="140" height="40" as="geometry"/></mxCell><mxCell id="rPETEuu0OWyHx-MV_tZJ-71" value="Zeitraum" style="ellipse;whiteSpace=wrap;html=1;align=center;fillColor=#FFFFFF;gradientColor=none;gradientDirection=east;fontColor=#000000;" parent="1" vertex="1"><mxGeometry x="450" y="420" width="140" height="40" as="geometry"/></mxCell><mxCell id="rPETEuu0OWyHx-MV_tZJ-72" value="" style="endArrow=none;html=1;rounded=0;entryX=0;entryY=0.5;entryDx=0;entryDy=0;" parent="1" edge="1"><mxGeometry relative="1" as="geometry"><mxPoint x="370" y="440" as="sourcePoint"/><mxPoint x="450" y="440" as="targetPoint"/></mxGeometry></mxCell><mxCell id="rPETEuu0OWyHx-MV_tZJ-75" value="" style="endArrow=none;html=1;rounded=0;exitX=0.5;exitY=1;exitDx=0;exitDy=0;" parent="1" source="rPETEuu0OWyHx-MV_tZJ-14" edge="1"><mxGeometry relative="1" as="geometry"><mxPoint x="380" y="450" as="sourcePoint"/><mxPoint x="370" y="440" as="targetPoint"/></mxGeometry></mxCell><mxCell id="rPETEuu0OWyHx-MV_tZJ-77" value="" style="endArrow=none;html=1;rounded=0;exitX=1;exitY=0.5;exitDx=0;exitDy=0;" parent="1" source="rPETEuu0OWyHx-MV_tZJ-4" edge="1"><mxGeometry relative="1" as="geometry"><mxPoint x="735" y="-300" as="sourcePoint"/><mxPoint x="808" y="-180" as="targetPoint"/></mxGeometry></mxCell><mxCell id="rPETEuu0OWyHx-MV_tZJ-78" value="" style="endArrow=none;html=1;rounded=0;" parent="1" edge="1"><mxGeometry relative="1" as="geometry"><mxPoint x="800" y="-180" as="sourcePoint"/><mxPoint x="800" y="-720" as="targetPoint"/></mxGeometry></mxCell><mxCell id="rPETEuu0OWyHx-MV_tZJ-79" value="Nachname" style="ellipse;whiteSpace=wrap;html=1;align=center;fillColor=#FFFFFF;gradientColor=none;gradientDirection=east;fontColor=#000000;" parent="1" vertex="1"><mxGeometry x="880" y="-320" width="140" height="40" as="geometry"/></mxCell><mxCell id="rPETEuu0OWyHx-MV_tZJ-80" value="&lt;div align=&quot;center&quot;&gt;Vorname&lt;/div&gt;" style="ellipse;whiteSpace=wrap;html=1;align=center;fillColor=#FFFFFF;gradientColor=none;gradientDirection=east;fontColor=#000000;" parent="1" vertex="1"><mxGeometry x="880" y="-260" width="140" height="40" as="geometry"/></mxCell><mxCell id="rPETEuu0OWyHx-MV_tZJ-81" value="&lt;u&gt;TrainerEMail&lt;/u&gt;" style="ellipse;whiteSpace=wrap;html=1;align=center;fillColor=#FFFFFF;gradientColor=none;gradientDirection=east;fontColor=#000000;" parent="1" vertex="1"><mxGeometry x="880" y="-200" width="140" height="40" as="geometry"/></mxCell><mxCell id="rPETEuu0OWyHx-MV_tZJ-82" value="" style="endArrow=none;html=1;rounded=0;entryX=0;entryY=0.5;entryDx=0;entryDy=0;" parent="1" target="rPETEuu0OWyHx-MV_tZJ-79" edge="1"><mxGeometry relative="1" as="geometry"><mxPoint x="800" y="-300" as="sourcePoint"/><mxPoint x="637.5" y="-270" as="targetPoint"/></mxGeometry></mxCell><mxCell id="rPETEuu0OWyHx-MV_tZJ-83" value="" style="endArrow=none;html=1;rounded=0;entryX=0;entryY=0.5;entryDx=0;entryDy=0;" parent="1" target="rPETEuu0OWyHx-MV_tZJ-80" edge="1"><mxGeometry relative="1" as="geometry"><mxPoint x="800" y="-240" as="sourcePoint"/><mxPoint x="897.5" y="-290" as="targetPoint"/></mxGeometry></mxCell><mxCell id="rPETEuu0OWyHx-MV_tZJ-84" value="" style="endArrow=none;html=1;rounded=0;entryX=0;entryY=0.5;entryDx=0;entryDy=0;" parent="1" target="rPETEuu0OWyHx-MV_tZJ-81" edge="1"><mxGeometry relative="1" as="geometry"><mxPoint x="807.5" y="-180" as="sourcePoint"/><mxPoint x="907.5" y="-280" as="targetPoint"/></mxGeometry></mxCell><mxCell id="2" value="&lt;u&gt;Jahr&lt;/u&gt;" style="ellipse;whiteSpace=wrap;html=1;align=center;fillColor=#FFFFFF;gradientColor=none;gradientDirection=east;fontColor=#000000;" vertex="1" parent="1"><mxGeometry x="450" y="120" width="140" height="40" as="geometry"/></mxCell><mxCell id="3" value="&lt;u&gt;Monat&lt;/u&gt;" style="ellipse;whiteSpace=wrap;html=1;align=center;fillColor=#FFFFFF;gradientColor=none;gradientDirection=east;fontColor=#000000;" vertex="1" parent="1"><mxGeometry x="450" y="180" width="140" height="40" as="geometry"/></mxCell><mxCell id="4" value="&lt;u&gt;Tag&lt;/u&gt;" style="ellipse;whiteSpace=wrap;html=1;align=center;fillColor=#FFFFFF;gradientColor=none;gradientDirection=east;fontColor=#000000;" vertex="1" parent="1"><mxGeometry x="450" y="240" width="140" height="40" as="geometry"/></mxCell><mxCell id="5" value="" style="endArrow=none;html=1;rounded=0;entryX=0;entryY=0.5;entryDx=0;entryDy=0;" edge="1" parent="1" target="2"><mxGeometry relative="1" as="geometry"><mxPoint x="370" y="140" as="sourcePoint"/><mxPoint x="200" y="170" as="targetPoint"/></mxGeometry></mxCell><mxCell id="6" value="" style="endArrow=none;html=1;rounded=0;entryX=0;entryY=0.5;entryDx=0;entryDy=0;" edge="1" parent="1" target="3"><mxGeometry relative="1" as="geometry"><mxPoint x="370" y="200" as="sourcePoint"/><mxPoint x="460" y="150" as="targetPoint"/></mxGeometry></mxCell><mxCell id="7" value="" style="endArrow=none;html=1;rounded=0;entryX=0;entryY=0.5;entryDx=0;entryDy=0;" edge="1" parent="1" target="4"><mxGeometry relative="1" as="geometry"><mxPoint x="370" y="260" as="sourcePoint"/><mxPoint x="470" y="160" as="targetPoint"/></mxGeometry></mxCell><mxCell id="8" value="" style="endArrow=none;html=1;rounded=0;exitX=0.5;exitY=1;exitDx=0;exitDy=0;" edge="1" parent="1" source="rPETEuu0OWyHx-MV_tZJ-6"><mxGeometry relative="1" as="geometry"><mxPoint x="370" y="125" as="sourcePoint"/><mxPoint x="370" y="260" as="targetPoint"/></mxGeometry></mxCell><mxCell id="10" value="&lt;u&gt;Uhrzeit&lt;/u&gt;" style="ellipse;whiteSpace=wrap;html=1;align=center;fillColor=#FFFFFF;gradientColor=none;gradientDirection=east;fontColor=#000000;" vertex="1" parent="1"><mxGeometry x="150" y="-60" width="140" height="40" as="geometry"/></mxCell><mxCell id="11" value="Dauer" style="ellipse;whiteSpace=wrap;html=1;align=center;fillColor=#FFFFFF;gradientColor=none;gradientDirection=east;fontColor=#000000;" vertex="1" parent="1"><mxGeometry x="150" width="140" height="40" as="geometry"/></mxCell><mxCell id="17" value="" style="endArrow=none;html=1;rounded=0;entryX=1;entryY=0.5;entryDx=0;entryDy=0;" edge="1" parent="1" target="10"><mxGeometry relative="1" as="geometry"><mxPoint x="370" y="-40" as="sourcePoint"/><mxPoint x="450" y="-15" as="targetPoint"/></mxGeometry></mxCell><mxCell id="18" value="" style="endArrow=none;html=1;rounded=0;entryX=0;entryY=0.5;entryDx=0;entryDy=0;exitX=1;exitY=0.5;exitDx=0;exitDy=0;" edge="1" parent="1" source="11"><mxGeometry relative="1" as="geometry"><mxPoint x="340" y="20" as="sourcePoint"/><mxPoint x="370" y="20" as="targetPoint"/></mxGeometry></mxCell><mxCell id="19" value="" style="endArrow=none;html=1;rounded=0;" edge="1" parent="1"><mxGeometry relative="1" as="geometry"><mxPoint x="370" y="-40" as="sourcePoint"/><mxPoint x="370" y="45" as="targetPoint"/></mxGeometry></mxCell><mxCell id="24" value="Telefonnummer" style="ellipse;whiteSpace=wrap;html=1;align=center;fillColor=#FFFFFF;gradientColor=none;gradientDirection=east;fontColor=#000000;" vertex="1" parent="1"><mxGeometry x="880" y="-500" width="140" height="40" as="geometry"/></mxCell><mxCell id="25" value="&lt;div align=&quot;center&quot;&gt;Geschlecht&lt;/div&gt;" style="ellipse;whiteSpace=wrap;html=1;align=center;fillColor=#FFFFFF;gradientColor=none;gradientDirection=east;fontColor=#000000;" vertex="1" parent="1"><mxGeometry x="880" y="-440" width="140" height="40" as="geometry"/></mxCell><mxCell id="26" value="GebDatum" style="ellipse;whiteSpace=wrap;html=1;align=center;fillColor=#FFFFFF;gradientColor=none;gradientDirection=east;fontColor=#000000;" vertex="1" parent="1"><mxGeometry x="880" y="-380" width="140" height="40" as="geometry"/></mxCell><mxCell id="27" value="" style="endArrow=none;html=1;rounded=0;entryX=0;entryY=0.5;entryDx=0;entryDy=0;" edge="1" parent="1" target="24"><mxGeometry relative="1" as="geometry"><mxPoint x="800" y="-480" as="sourcePoint"/><mxPoint x="637.5" y="-450" as="targetPoint"/></mxGeometry></mxCell><mxCell id="28" value="" style="endArrow=none;html=1;rounded=0;entryX=0;entryY=0.5;entryDx=0;entryDy=0;" edge="1" parent="1" target="25"><mxGeometry relative="1" as="geometry"><mxPoint x="800" y="-420" as="sourcePoint"/><mxPoint x="897.5" y="-470" as="targetPoint"/></mxGeometry></mxCell><mxCell id="29" value="" style="endArrow=none;html=1;rounded=0;entryX=0;entryY=0.5;entryDx=0;entryDy=0;" edge="1" parent="1" target="26"><mxGeometry relative="1" as="geometry"><mxPoint x="800" y="-360" as="sourcePoint"/><mxPoint x="907.5" y="-460" as="targetPoint"/></mxGeometry></mxCell><mxCell id="30" value="HausNr" style="ellipse;whiteSpace=wrap;html=1;align=center;fillColor=#FFFFFF;gradientColor=none;gradientDirection=east;fontColor=#000000;" vertex="1" parent="1"><mxGeometry x="880" y="-680" width="140" height="40" as="geometry"/></mxCell><mxCell id="31" value="&lt;div align=&quot;center&quot;&gt;Strasse&lt;/div&gt;" style="ellipse;whiteSpace=wrap;html=1;align=center;fillColor=#FFFFFF;gradientColor=none;gradientDirection=east;fontColor=#000000;" vertex="1" parent="1"><mxGeometry x="880" y="-620" width="140" height="40" as="geometry"/></mxCell><mxCell id="32" value="PLZ" style="ellipse;whiteSpace=wrap;html=1;align=center;fillColor=#FFFFFF;gradientColor=none;gradientDirection=east;fontColor=#000000;" vertex="1" parent="1"><mxGeometry x="880" y="-560" width="140" height="40" as="geometry"/></mxCell><mxCell id="33" value="" style="endArrow=none;html=1;rounded=0;entryX=0;entryY=0.5;entryDx=0;entryDy=0;" edge="1" parent="1" target="30"><mxGeometry relative="1" as="geometry"><mxPoint x="800" y="-660" as="sourcePoint"/><mxPoint x="637.5" y="-630" as="targetPoint"/></mxGeometry></mxCell><mxCell id="34" value="" style="endArrow=none;html=1;rounded=0;entryX=0;entryY=0.5;entryDx=0;entryDy=0;" edge="1" parent="1" target="31"><mxGeometry relative="1" as="geometry"><mxPoint x="800" y="-600" as="sourcePoint"/><mxPoint x="897.5" y="-650" as="targetPoint"/></mxGeometry></mxCell><mxCell id="35" value="" style="endArrow=none;html=1;rounded=0;entryX=0;entryY=0.5;entryDx=0;entryDy=0;" edge="1" parent="1" target="32"><mxGeometry relative="1" as="geometry"><mxPoint x="800" y="-540" as="sourcePoint"/><mxPoint x="907.5" y="-640" as="targetPoint"/></mxGeometry></mxCell><mxCell id="37" value="Qualifikationsstufe" style="ellipse;whiteSpace=wrap;html=1;align=center;fillColor=#FFFFFF;gradientColor=none;gradientDirection=east;fontColor=#000000;" vertex="1" parent="1"><mxGeometry x="880" y="-740" width="140" height="40" as="geometry"/></mxCell><mxCell id="38" value="" style="endArrow=none;html=1;rounded=0;entryX=0;entryY=0.5;entryDx=0;entryDy=0;" edge="1" parent="1" target="37"><mxGeometry relative="1" as="geometry"><mxPoint x="800" y="-720" as="sourcePoint"/><mxPoint x="637.5" y="-690" as="targetPoint"/></mxGeometry></mxCell><mxCell id="40" value="" style="endArrow=none;html=1;rounded=0;" edge="1" parent="1"><mxGeometry relative="1" as="geometry"><mxPoint x="-70" y="860" as="sourcePoint"/><mxPoint x="-70" y="320" as="targetPoint"/></mxGeometry></mxCell><mxCell id="41" value="Nachname" style="ellipse;whiteSpace=wrap;html=1;align=center;fillColor=#FFFFFF;gradientColor=none;gradientDirection=east;fontColor=#000000;" vertex="1" parent="1"><mxGeometry x="-290" y="720" width="140" height="40" as="geometry"/></mxCell><mxCell id="42" value="&lt;div align=&quot;center&quot;&gt;Vorname&lt;/div&gt;" style="ellipse;whiteSpace=wrap;html=1;align=center;fillColor=#FFFFFF;gradientColor=none;gradientDirection=east;fontColor=#000000;" vertex="1" parent="1"><mxGeometry x="-290" y="780" width="140" height="40" as="geometry"/></mxCell><mxCell id="43" value="&lt;u&gt;KundenEMail&lt;/u&gt;" style="ellipse;whiteSpace=wrap;html=1;align=center;fillColor=#FFFFFF;gradientColor=none;gradientDirection=east;fontColor=#000000;" vertex="1" parent="1"><mxGeometry x="-290" y="840" width="140" height="40" as="geometry"/></mxCell><mxCell id="44" value="" style="endArrow=none;html=1;rounded=0;entryX=0;entryY=0.5;entryDx=0;entryDy=0;" edge="1" parent="1"><mxGeometry relative="1" as="geometry"><mxPoint x="-150" y="740" as="sourcePoint"/><mxPoint x="-70" y="740" as="targetPoint"/></mxGeometry></mxCell><mxCell id="45" value="" style="endArrow=none;html=1;rounded=0;entryX=0;entryY=0.5;entryDx=0;entryDy=0;" edge="1" parent="1"><mxGeometry relative="1" as="geometry"><mxPoint x="-150" y="800" as="sourcePoint"/><mxPoint x="-70" y="800" as="targetPoint"/></mxGeometry></mxCell><mxCell id="46" value="" style="endArrow=none;html=1;rounded=0;entryX=0;entryY=0.5;entryDx=0;entryDy=0;" edge="1" parent="1"><mxGeometry relative="1" as="geometry"><mxPoint x="-150" y="860" as="sourcePoint"/><mxPoint x="-70" y="860" as="targetPoint"/></mxGeometry></mxCell><mxCell id="47" value="Telefonnummer" style="ellipse;whiteSpace=wrap;html=1;align=center;fillColor=#FFFFFF;gradientColor=none;gradientDirection=east;fontColor=#000000;" vertex="1" parent="1"><mxGeometry x="-290" y="540" width="140" height="40" as="geometry"/></mxCell><mxCell id="48" value="&lt;div align=&quot;center&quot;&gt;Geschlecht&lt;/div&gt;" style="ellipse;whiteSpace=wrap;html=1;align=center;fillColor=#FFFFFF;gradientColor=none;gradientDirection=east;fontColor=#000000;" vertex="1" parent="1"><mxGeometry x="-290" y="600" width="140" height="40" as="geometry"/></mxCell><mxCell id="49" value="GebDatum" style="ellipse;whiteSpace=wrap;html=1;align=center;fillColor=#FFFFFF;gradientColor=none;gradientDirection=east;fontColor=#000000;" vertex="1" parent="1"><mxGeometry x="-290" y="660" width="140" height="40" as="geometry"/></mxCell><mxCell id="50" value="" style="endArrow=none;html=1;rounded=0;entryX=0;entryY=0.5;entryDx=0;entryDy=0;" edge="1" parent="1"><mxGeometry relative="1" as="geometry"><mxPoint x="-150" y="560" as="sourcePoint"/><mxPoint x="-70" y="560" as="targetPoint"/></mxGeometry></mxCell><mxCell id="51" value="" style="endArrow=none;html=1;rounded=0;entryX=0;entryY=0.5;entryDx=0;entryDy=0;" edge="1" parent="1"><mxGeometry relative="1" as="geometry"><mxPoint x="-150" y="620" as="sourcePoint"/><mxPoint x="-70" y="620" as="targetPoint"/></mxGeometry></mxCell><mxCell id="52" value="" style="endArrow=none;html=1;rounded=0;entryX=0;entryY=0.5;entryDx=0;entryDy=0;" edge="1" parent="1"><mxGeometry relative="1" as="geometry"><mxPoint x="-150" y="680" as="sourcePoint"/><mxPoint x="-70" y="680" as="targetPoint"/></mxGeometry></mxCell><mxCell id="53" value="HausNr" style="ellipse;whiteSpace=wrap;html=1;align=center;fillColor=#FFFFFF;gradientColor=none;gradientDirection=east;fontColor=#000000;" vertex="1" parent="1"><mxGeometry x="-290" y="360" width="140" height="40" as="geometry"/></mxCell><mxCell id="54" value="&lt;div align=&quot;center&quot;&gt;Strasse&lt;/div&gt;" style="ellipse;whiteSpace=wrap;html=1;align=center;fillColor=#FFFFFF;gradientColor=none;gradientDirection=east;fontColor=#000000;" vertex="1" parent="1"><mxGeometry x="-290" y="420" width="140" height="40" as="geometry"/></mxCell><mxCell id="55" value="PLZ" style="ellipse;whiteSpace=wrap;html=1;align=center;fillColor=#FFFFFF;gradientColor=none;gradientDirection=east;fontColor=#000000;" vertex="1" parent="1"><mxGeometry x="-290" y="480" width="140" height="40" as="geometry"/></mxCell><mxCell id="56" value="" style="endArrow=none;html=1;rounded=0;entryX=0;entryY=0.5;entryDx=0;entryDy=0;" edge="1" parent="1"><mxGeometry relative="1" as="geometry"><mxPoint x="-150" y="380" as="sourcePoint"/><mxPoint x="-70" y="380" as="targetPoint"/></mxGeometry></mxCell><mxCell id="57" value="" style="endArrow=none;html=1;rounded=0;entryX=0;entryY=0.5;entryDx=0;entryDy=0;" edge="1" parent="1"><mxGeometry relative="1" as="geometry"><mxPoint x="-150" y="440" as="sourcePoint"/><mxPoint x="-70" y="440" as="targetPoint"/></mxGeometry></mxCell><mxCell id="58" value="" style="endArrow=none;html=1;rounded=0;entryX=0;entryY=0.5;entryDx=0;entryDy=0;" edge="1" parent="1"><mxGeometry relative="1" as="geometry"><mxPoint x="-150" y="500" as="sourcePoint"/><mxPoint x="-70" y="500" as="targetPoint"/></mxGeometry></mxCell><mxCell id="59" value="Kursstufe" style="ellipse;whiteSpace=wrap;html=1;align=center;fillColor=#FFFFFF;gradientColor=none;gradientDirection=east;fontColor=#000000;" vertex="1" parent="1"><mxGeometry x="-290" y="300" width="140" height="40" as="geometry"/></mxCell><mxCell id="60" value="" style="endArrow=none;html=1;rounded=0;" edge="1" parent="1"><mxGeometry relative="1" as="geometry"><mxPoint x="-150" y="320" as="sourcePoint"/><mxPoint x="-70" y="320" as="targetPoint"/></mxGeometry></mxCell><mxCell id="61" value="" style="endArrow=none;html=1;rounded=0;" edge="1" parent="1"><mxGeometry relative="1" as="geometry"><mxPoint x="-70" y="320" as="sourcePoint"/><mxPoint y="320" as="targetPoint"/></mxGeometry></mxCell><mxCell id="62" value="" style="endArrow=none;html=1;rounded=0;" edge="1" parent="1"><mxGeometry relative="1" as="geometry"><mxPoint x="-70" y="-180" as="sourcePoint"/><mxPoint x="-70" y="-540" as="targetPoint"/></mxGeometry></mxCell><mxCell id="63" value="Jahr" style="ellipse;whiteSpace=wrap;html=1;align=center;fillColor=#FFFFFF;gradientColor=none;gradientDirection=east;fontColor=#000000;" vertex="1" parent="1"><mxGeometry x="-290" y="-320" width="140" height="40" as="geometry"/></mxCell><mxCell id="64" value="&lt;div align=&quot;center&quot;&gt;&lt;u&gt;Kursnummer&lt;/u&gt;&lt;/div&gt;" style="ellipse;whiteSpace=wrap;html=1;align=center;fillColor=#FFFFFF;gradientColor=none;gradientDirection=east;fontColor=#000000;" vertex="1" parent="1"><mxGeometry x="-290" y="-260" width="140" height="40" as="geometry"/></mxCell><mxCell id="65" value="Kursstufe" style="ellipse;whiteSpace=wrap;html=1;align=center;fillColor=#FFFFFF;gradientColor=none;gradientDirection=east;fontColor=#000000;" vertex="1" parent="1"><mxGeometry x="-290" y="-200" width="140" height="40" as="geometry"/></mxCell><mxCell id="66" value="" style="endArrow=none;html=1;rounded=0;entryX=0;entryY=0.5;entryDx=0;entryDy=0;" edge="1" parent="1"><mxGeometry relative="1" as="geometry"><mxPoint x="-150" y="-300" as="sourcePoint"/><mxPoint x="-70" y="-300" as="targetPoint"/></mxGeometry></mxCell><mxCell id="67" value="" style="endArrow=none;html=1;rounded=0;entryX=0;entryY=0.5;entryDx=0;entryDy=0;" edge="1" parent="1"><mxGeometry relative="1" as="geometry"><mxPoint x="-150" y="-240" as="sourcePoint"/><mxPoint x="-70" y="-240" as="targetPoint"/></mxGeometry></mxCell><mxCell id="68" value="" style="endArrow=none;html=1;rounded=0;entryX=0;entryY=0.5;entryDx=0;entryDy=0;" edge="1" parent="1"><mxGeometry relative="1" as="geometry"><mxPoint x="-150" y="-180" as="sourcePoint"/><mxPoint x="-70" y="-180" as="targetPoint"/></mxGeometry></mxCell><mxCell id="69" value="Uhrzeit" style="ellipse;whiteSpace=wrap;html=1;align=center;fillColor=#FFFFFF;gradientColor=none;gradientDirection=east;fontColor=#000000;" vertex="1" parent="1"><mxGeometry x="-290" y="-500" width="140" height="40" as="geometry"/></mxCell><mxCell id="70" value="&lt;div align=&quot;center&quot;&gt;Tag&lt;/div&gt;" style="ellipse;whiteSpace=wrap;html=1;align=center;fillColor=#FFFFFF;gradientColor=none;gradientDirection=east;fontColor=#000000;" vertex="1" parent="1"><mxGeometry x="-290" y="-440" width="140" height="40" as="geometry"/></mxCell><mxCell id="71" value="Monat" style="ellipse;whiteSpace=wrap;html=1;align=center;fillColor=#FFFFFF;gradientColor=none;gradientDirection=east;fontColor=#000000;" vertex="1" parent="1"><mxGeometry x="-290" y="-380" width="140" height="40" as="geometry"/></mxCell><mxCell id="72" value="" style="endArrow=none;html=1;rounded=0;entryX=0;entryY=0.5;entryDx=0;entryDy=0;" edge="1" parent="1"><mxGeometry relative="1" as="geometry"><mxPoint x="-150" y="-480" as="sourcePoint"/><mxPoint x="-70" y="-480" as="targetPoint"/></mxGeometry></mxCell><mxCell id="73" value="" style="endArrow=none;html=1;rounded=0;entryX=0;entryY=0.5;entryDx=0;entryDy=0;" edge="1" parent="1"><mxGeometry relative="1" as="geometry"><mxPoint x="-150" y="-420" as="sourcePoint"/><mxPoint x="-70" y="-420" as="targetPoint"/></mxGeometry></mxCell><mxCell id="74" value="" style="endArrow=none;html=1;rounded=0;entryX=0;entryY=0.5;entryDx=0;entryDy=0;" edge="1" parent="1"><mxGeometry relative="1" as="geometry"><mxPoint x="-150" y="-360" as="sourcePoint"/><mxPoint x="-70" y="-360" as="targetPoint"/></mxGeometry></mxCell><mxCell id="77" value="MaxTeilnehmer" style="ellipse;whiteSpace=wrap;html=1;align=center;fillColor=#FFFFFF;gradientColor=none;gradientDirection=east;fontColor=#000000;" vertex="1" parent="1"><mxGeometry x="-290" y="-560" width="140" height="40" as="geometry"/></mxCell><mxCell id="80" value="" style="endArrow=none;html=1;rounded=0;entryX=0;entryY=0.5;entryDx=0;entryDy=0;" edge="1" parent="1"><mxGeometry relative="1" as="geometry"><mxPoint x="-150" y="-540" as="sourcePoint"/><mxPoint x="-70" y="-540" as="targetPoint"/></mxGeometry></mxCell><mxCell id="83" value="" style="endArrow=none;html=1;rounded=0;" edge="1" parent="1"><mxGeometry relative="1" as="geometry"><mxPoint x="-70" y="-180" as="sourcePoint"/><mxPoint y="-180" as="targetPoint"/></mxGeometry></mxCell></root></mxGraphModel></diagram></mxfile>